<svg xmlns="http://www.w3.org/2000/svg" viewBox="0 0 520 360"><defs><linearGradient id="g" x1="0" y1="0" x2="1" y2="1"><stop offset="0" stop-color="#0b66c3"/><stop offset="1" stop-color="#0ea5e9"/></linearGradient><linearGradient id="gr" x1="0" y1="0" x2="1" y2="1"><stop offset="0" stop-color="#22c55e"/><stop offset="1" stop-color="#16a34a"/></linearGradient><linearGradient id="ga" x1="0" y1="0" x2="1" y2="1"><stop offset="0" stop-color="#f59e0b"/><stop offset="1" stop-color="#d97706"/></linearGradient><linearGradient id="gd" x1="0" y1="0" x2="1" y2="1"><stop offset="0" stop-color="#ef4444"/><stop offset="1" stop-color="#dc2626"/></linearGradient><linearGradient id="gp" x1="0" y1="0" x2="1" y2="1"><stop offset="0" stop-color="#a78bfa"/><stop offset="1" stop-color="#7c3aed"/></linearGradient></defs><rect width="520" height="360" rx="18" fill="#eaf1f8"/><path d="M151 150 a44 44 0 0 1 88 0" fill="none" stroke="url(#g)" stroke-width="8"/><rect x="144" y="150" width="16" height="30" rx="6" fill="url(#g)"/><rect x="230" y="150" width="16" height="30" rx="6" fill="url(#g)"/><path d="M240 176 q0 19.8 -24.200000000000003 19.8 h-15.399999999999999" fill="none" stroke="url(#g)" stroke-width="6"/><circle cx="199.4" cy="194.0" r="6" fill="url(#g)"/><rect x="270.0" y="90.0" width="150" height="120" rx="12" fill="#0f172a"/><rect x="270.0" y="90.0" width="150" height="24" rx="12" fill="#1e293b"/><rect x="270.0" y="102.0" width="150" height="12" fill="#1e293b"/><circle cx="286.0" cy="102.0" r="4" fill="#ef4444"/><circle cx="300.0" cy="102.0" r="4" fill="#f59e0b"/><circle cx="314.0" cy="102.0" r="4" fill="#22c55e"/><text x="286.0" y="138.0" font-family="monospace" font-size="15" fill="#22c55e">&lt;/&gt; script.ps1</text><text x="286.0" y="164.0" font-family="monospace" font-size="15" fill="#0ea5e9">&gt; backup OK</text><text x="260" y="336" text-anchor="middle" font-family="Plus Jakarta Sans,Arial,sans-serif" font-size="17" font-weight="800" fill="#0a4f96">Mesas de ayuda y scripting</text></svg>