<svg xmlns="http://www.w3.org/2000/svg" viewBox="0 0 520 360"><defs><linearGradient id="g" x1="0" y1="0" x2="1" y2="1"><stop offset="0" stop-color="#0b66c3"/><stop offset="1" stop-color="#0ea5e9"/></linearGradient><linearGradient id="gr" x1="0" y1="0" x2="1" y2="1"><stop offset="0" stop-color="#22c55e"/><stop offset="1" stop-color="#16a34a"/></linearGradient><linearGradient id="ga" x1="0" y1="0" x2="1" y2="1"><stop offset="0" stop-color="#f59e0b"/><stop offset="1" stop-color="#d97706"/></linearGradient><linearGradient id="gd" x1="0" y1="0" x2="1" y2="1"><stop offset="0" stop-color="#ef4444"/><stop offset="1" stop-color="#dc2626"/></linearGradient><linearGradient id="gp" x1="0" y1="0" x2="1" y2="1"><stop offset="0" stop-color="#a78bfa"/><stop offset="1" stop-color="#7c3aed"/></linearGradient></defs><rect width="520" height="360" rx="18" fill="#eaf1f8"/><line x1="264" y1="150" x2="281" y2="150" stroke="#334155" stroke-width="6" stroke-linecap="round"/><circle cx="281" cy="150" r="5" fill="#334155"/><line x1="254" y1="174" x2="266" y2="186" stroke="#334155" stroke-width="6" stroke-linecap="round"/><circle cx="266" cy="186" r="5" fill="#334155"/><line x1="230" y1="184" x2="230" y2="201" stroke="#334155" stroke-width="6" stroke-linecap="round"/><circle cx="230" cy="201" r="5" fill="#334155"/><line x1="206" y1="174" x2="194" y2="186" stroke="#334155" stroke-width="6" stroke-linecap="round"/><circle cx="194" cy="186" r="5" fill="#334155"/><line x1="196" y1="150" x2="179" y2="150" stroke="#334155" stroke-width="6" stroke-linecap="round"/><circle cx="179" cy="150" r="5" fill="#334155"/><line x1="206" y1="126" x2="194" y2="114" stroke="#334155" stroke-width="6" stroke-linecap="round"/><circle cx="194" cy="114" r="5" fill="#334155"/><line x1="230" y1="116" x2="230" y2="99" stroke="#334155" stroke-width="6" stroke-linecap="round"/><circle cx="230" cy="99" r="5" fill="#334155"/><line x1="254" y1="126" x2="266" y2="114" stroke="#334155" stroke-width="6" stroke-linecap="round"/><circle cx="266" cy="114" r="5" fill="#334155"/><circle cx="230" cy="150" r="34" fill="#334155"/><circle cx="219.8" cy="143.88" r="5.44" fill="#fff"/><circle cx="238.5" cy="158.5" r="4.08" fill="#fff"/><text x="330" y="120" font-family="monospace" font-size="15" fill="#dc2626">rootkit</text><text x="330" y="150" font-family="monospace" font-size="15" fill="#7c3aed">botnet</text><text x="330" y="180" font-family="monospace" font-size="15" fill="#d97706">spyware</text><text x="260" y="336" text-anchor="middle" font-family="Plus Jakarta Sans,Arial,sans-serif" font-size="17" font-weight="800" fill="#0a4f96">Spyware, rootkit, botnet</text></svg>