<svg xmlns="http://www.w3.org/2000/svg" viewBox="0 0 520 360"><defs><linearGradient id="g" x1="0" y1="0" x2="1" y2="1"><stop offset="0" stop-color="#0b66c3"/><stop offset="1" stop-color="#0ea5e9"/></linearGradient><linearGradient id="gr" x1="0" y1="0" x2="1" y2="1"><stop offset="0" stop-color="#22c55e"/><stop offset="1" stop-color="#16a34a"/></linearGradient><linearGradient id="ga" x1="0" y1="0" x2="1" y2="1"><stop offset="0" stop-color="#f59e0b"/><stop offset="1" stop-color="#d97706"/></linearGradient><linearGradient id="gd" x1="0" y1="0" x2="1" y2="1"><stop offset="0" stop-color="#ef4444"/><stop offset="1" stop-color="#dc2626"/></linearGradient><linearGradient id="gp" x1="0" y1="0" x2="1" y2="1"><stop offset="0" stop-color="#a78bfa"/><stop offset="1" stop-color="#7c3aed"/></linearGradient></defs><rect width="520" height="360" rx="18" fill="#eaf1f8"/><line x1="220" y1="150" x2="235" y2="150" stroke="url(#gd)" stroke-width="6" stroke-linecap="round"/><circle cx="235" cy="150" r="5" fill="url(#gd)"/><line x1="211" y1="171" x2="222" y2="182" stroke="url(#gd)" stroke-width="6" stroke-linecap="round"/><circle cx="222" cy="182" r="5" fill="url(#gd)"/><line x1="190" y1="180" x2="190" y2="195" stroke="url(#gd)" stroke-width="6" stroke-linecap="round"/><circle cx="190" cy="195" r="5" fill="url(#gd)"/><line x1="169" y1="171" x2="158" y2="182" stroke="url(#gd)" stroke-width="6" stroke-linecap="round"/><circle cx="158" cy="182" r="5" fill="url(#gd)"/><line x1="160" y1="150" x2="145" y2="150" stroke="url(#gd)" stroke-width="6" stroke-linecap="round"/><circle cx="145" cy="150" r="5" fill="url(#gd)"/><line x1="169" y1="129" x2="158" y2="118" stroke="url(#gd)" stroke-width="6" stroke-linecap="round"/><circle cx="158" cy="118" r="5" fill="url(#gd)"/><line x1="190" y1="120" x2="190" y2="105" stroke="url(#gd)" stroke-width="6" stroke-linecap="round"/><circle cx="190" cy="105" r="5" fill="url(#gd)"/><line x1="211" y1="129" x2="222" y2="118" stroke="url(#gd)" stroke-width="6" stroke-linecap="round"/><circle cx="222" cy="118" r="5" fill="url(#gd)"/><circle cx="190" cy="150" r="30" fill="url(#gd)"/><circle cx="181.0" cy="144.6" r="4.8" fill="#fff"/><circle cx="197.5" cy="157.5" r="3.5999999999999996" fill="#fff"/><line x1="344" y1="160" x2="356" y2="160" stroke="url(#ga)" stroke-width="6" stroke-linecap="round"/><circle cx="356" cy="160" r="5" fill="url(#ga)"/><line x1="337" y1="177" x2="345" y2="185" stroke="url(#ga)" stroke-width="6" stroke-linecap="round"/><circle cx="345" cy="185" r="5" fill="url(#ga)"/><line x1="320" y1="184" x2="320" y2="196" stroke="url(#ga)" stroke-width="6" stroke-linecap="round"/><circle cx="320" cy="196" r="5" fill="url(#ga)"/><line x1="303" y1="177" x2="295" y2="185" stroke="url(#ga)" stroke-width="6" stroke-linecap="round"/><circle cx="295" cy="185" r="5" fill="url(#ga)"/><line x1="296" y1="160" x2="284" y2="160" stroke="url(#ga)" stroke-width="6" stroke-linecap="round"/><circle cx="284" cy="160" r="5" fill="url(#ga)"/><line x1="303" y1="143" x2="295" y2="135" stroke="url(#ga)" stroke-width="6" stroke-linecap="round"/><circle cx="295" cy="135" r="5" fill="url(#ga)"/><line x1="320" y1="136" x2="320" y2="124" stroke="url(#ga)" stroke-width="6" stroke-linecap="round"/><circle cx="320" cy="124" r="5" fill="url(#ga)"/><line x1="337" y1="143" x2="345" y2="135" stroke="url(#ga)" stroke-width="6" stroke-linecap="round"/><circle cx="345" cy="135" r="5" fill="url(#ga)"/><circle cx="320" cy="160" r="24" fill="url(#ga)"/><circle cx="312.8" cy="155.68" r="3.84" fill="#fff"/><circle cx="326.0" cy="166.0" r="2.88" fill="#fff"/><line x1="298" y1="110" x2="307" y2="110" stroke="url(#gp)" stroke-width="6" stroke-linecap="round"/><circle cx="307" cy="110" r="5" fill="url(#gp)"/><line x1="293" y1="123" x2="299" y2="129" stroke="url(#gp)" stroke-width="6" stroke-linecap="round"/><circle cx="299" cy="129" r="5" fill="url(#gp)"/><line x1="280" y1="128" x2="280" y2="137" stroke="url(#gp)" stroke-width="6" stroke-linecap="round"/><circle cx="280" cy="137" r="5" fill="url(#gp)"/><line x1="267" y1="123" x2="261" y2="129" stroke="url(#gp)" stroke-width="6" stroke-linecap="round"/><circle cx="261" cy="129" r="5" fill="url(#gp)"/><line x1="262" y1="110" x2="253" y2="110" stroke="url(#gp)" stroke-width="6" stroke-linecap="round"/><circle cx="253" cy="110" r="5" fill="url(#gp)"/><line x1="267" y1="97" x2="261" y2="91" stroke="url(#gp)" stroke-width="6" stroke-linecap="round"/><circle cx="261" cy="91" r="5" fill="url(#gp)"/><line x1="280" y1="92" x2="280" y2="83" stroke="url(#gp)" stroke-width="6" stroke-linecap="round"/><circle cx="280" cy="83" r="5" fill="url(#gp)"/><line x1="293" y1="97" x2="299" y2="91" stroke="url(#gp)" stroke-width="6" stroke-linecap="round"/><circle cx="299" cy="91" r="5" fill="url(#gp)"/><circle cx="280" cy="110" r="18" fill="url(#gp)"/><circle cx="274.6" cy="106.76" r="2.88" fill="#fff"/><circle cx="284.5" cy="114.5" r="2.16" fill="#fff"/><text x="260" y="336" text-anchor="middle" font-family="Plus Jakarta Sans,Arial,sans-serif" font-size="17" font-weight="800" fill="#0a4f96">Tipos de malware</text></svg>