<svg xmlns="http://www.w3.org/2000/svg" viewBox="0 0 520 360"><defs><linearGradient id="g" x1="0" y1="0" x2="1" y2="1"><stop offset="0" stop-color="#0b66c3"/><stop offset="1" stop-color="#0ea5e9"/></linearGradient><linearGradient id="gr" x1="0" y1="0" x2="1" y2="1"><stop offset="0" stop-color="#22c55e"/><stop offset="1" stop-color="#16a34a"/></linearGradient><linearGradient id="ga" x1="0" y1="0" x2="1" y2="1"><stop offset="0" stop-color="#f59e0b"/><stop offset="1" stop-color="#d97706"/></linearGradient><linearGradient id="gd" x1="0" y1="0" x2="1" y2="1"><stop offset="0" stop-color="#ef4444"/><stop offset="1" stop-color="#dc2626"/></linearGradient><linearGradient id="gp" x1="0" y1="0" x2="1" y2="1"><stop offset="0" stop-color="#a78bfa"/><stop offset="1" stop-color="#7c3aed"/></linearGradient></defs><rect width="520" height="360" rx="18" fill="#eaf1f8"/><rect x="150.0" y="75.0" width="120" height="150" rx="10" fill="#fff" stroke="#cfd9e6" stroke-width="2"/><rect x="168.0" y="93.0" width="60.0" height="9" rx="4" fill="url(#g)"/><rect x="168.0" y="123.0" width="84.0" height="7" rx="3" fill="#cfd9e6"/><rect x="168.0" y="145.5" width="84.0" height="7" rx="3" fill="#cfd9e6"/><rect x="168.0" y="168.0" width="84.0" height="7" rx="3" fill="#cfd9e6"/><path d="M315 95 q40 0 40 55 q0 30 -25 30" fill="none" stroke="url(#gd)" stroke-width="5"/><path d="M330 175 a14 14 0 1 0 0 1 z" fill="none" stroke="url(#gd)" stroke-width="5"/><line x1="330" y1="160" x2="330" y2="178" stroke="url(#gd)" stroke-width="5"/><text x="260" y="336" text-anchor="middle" font-family="Plus Jakarta Sans,Arial,sans-serif" font-size="17" font-weight="800" fill="#0a4f96">Ingeniería social (phishing)</text></svg>