<svg xmlns="http://www.w3.org/2000/svg" viewBox="0 0 520 360"><defs><linearGradient id="g" x1="0" y1="0" x2="1" y2="1"><stop offset="0" stop-color="#0b66c3"/><stop offset="1" stop-color="#0ea5e9"/></linearGradient><linearGradient id="gr" x1="0" y1="0" x2="1" y2="1"><stop offset="0" stop-color="#22c55e"/><stop offset="1" stop-color="#16a34a"/></linearGradient><linearGradient id="ga" x1="0" y1="0" x2="1" y2="1"><stop offset="0" stop-color="#f59e0b"/><stop offset="1" stop-color="#d97706"/></linearGradient><linearGradient id="gd" x1="0" y1="0" x2="1" y2="1"><stop offset="0" stop-color="#ef4444"/><stop offset="1" stop-color="#dc2626"/></linearGradient><linearGradient id="gp" x1="0" y1="0" x2="1" y2="1"><stop offset="0" stop-color="#a78bfa"/><stop offset="1" stop-color="#7c3aed"/></linearGradient></defs><rect width="520" height="360" rx="18" fill="#eaf1f8"/><circle cx="260" cy="150" r="96" fill="url(#g)" opacity="0.12"/><path d="M188 150 a72 72 0 0 1 144 0" fill="none" stroke="url(#g)" stroke-width="9.36" stroke-linecap="round"/><path d="M212.48 150 a47.52 47.52 0 0 1 95.04 0" fill="none" stroke="url(#g)" stroke-width="9.36" stroke-linecap="round"/><path d="M236.24 150 a23.76 23.76 0 0 1 47.52 0" fill="none" stroke="url(#g)" stroke-width="9.36" stroke-linecap="round"/><circle cx="260" cy="154.32" r="7.92" fill="url(#g)"/><path d="M243.88 202.4 v-11.700000000000001 a16.12 16.12 0 0 1 32.24 0 v11.700000000000001" fill="none" stroke="url(#g)" stroke-width="7.8" stroke-linecap="round"/><rect x="237.9" y="202.4" width="44.199999999999996" height="33.800000000000004" rx="5.72" fill="url(#g)"/><circle cx="260" cy="216.70000000000002" r="5.2" fill="#fff"/><rect x="258.18" y="216.70000000000002" width="3.6400000000000006" height="11.700000000000001" rx="2" fill="#fff"/><text x="260" y="336" text-anchor="middle" font-family="Plus Jakarta Sans,Arial,sans-serif" font-size="17" font-weight="800" fill="#0a4f96">Seguridad inalámbrica</text></svg>