<svg xmlns="http://www.w3.org/2000/svg" viewBox="0 0 520 360"><defs><linearGradient id="g" x1="0" y1="0" x2="1" y2="1"><stop offset="0" stop-color="#0b66c3"/><stop offset="1" stop-color="#0ea5e9"/></linearGradient><linearGradient id="gr" x1="0" y1="0" x2="1" y2="1"><stop offset="0" stop-color="#22c55e"/><stop offset="1" stop-color="#16a34a"/></linearGradient><linearGradient id="ga" x1="0" y1="0" x2="1" y2="1"><stop offset="0" stop-color="#f59e0b"/><stop offset="1" stop-color="#d97706"/></linearGradient><linearGradient id="gd" x1="0" y1="0" x2="1" y2="1"><stop offset="0" stop-color="#ef4444"/><stop offset="1" stop-color="#dc2626"/></linearGradient><linearGradient id="gp" x1="0" y1="0" x2="1" y2="1"><stop offset="0" stop-color="#a78bfa"/><stop offset="1" stop-color="#7c3aed"/></linearGradient></defs><rect width="520" height="360" rx="18" fill="#eaf1f8"/><line x1="225.0" y1="132.0" x2="206.8" y2="81.6" stroke="#1f2937" stroke-width="5" stroke-linecap="round"/><line x1="295.0" y1="132.0" x2="313.2" y2="81.6" stroke="#1f2937" stroke-width="5" stroke-linecap="round"/><rect x="190.0" y="132.0" width="140" height="56.0" rx="10" fill="#1f2937"/><circle cx="220.8" cy="160" r="4" fill="#22c55e"/><circle cx="246.0" cy="160" r="4" fill="#22c55e"/><circle cx="271.2" cy="160" r="4" fill="#22c55e"/><circle cx="296.4" cy="160" r="4" fill="#22c55e"/><path d="M166 110 a34 34 0 0 1 68 0" fill="none" stroke="url(#g)" stroke-width="4.42" stroke-linecap="round"/><path d="M177.56 110 a22.44 22.44 0 0 1 44.88 0" fill="none" stroke="url(#g)" stroke-width="4.42" stroke-linecap="round"/><path d="M188.78 110 a11.22 11.22 0 0 1 22.44 0" fill="none" stroke="url(#g)" stroke-width="4.42" stroke-linecap="round"/><circle cx="200" cy="112.04" r="3.74" fill="url(#g)"/><path d="M296 110 a34 34 0 0 1 68 0" fill="none" stroke="url(#gr)" stroke-width="4.42" stroke-linecap="round"/><path d="M307.56 110 a22.44 22.44 0 0 1 44.88 0" fill="none" stroke="url(#gr)" stroke-width="4.42" stroke-linecap="round"/><path d="M318.78 110 a11.22 11.22 0 0 1 22.44 0" fill="none" stroke="url(#gr)" stroke-width="4.42" stroke-linecap="round"/><circle cx="330" cy="112.04" r="3.74" fill="url(#gr)"/><text x="260" y="336" text-anchor="middle" font-family="Plus Jakarta Sans,Arial,sans-serif" font-size="17" font-weight="800" fill="#0a4f96">Red de invitados</text></svg>