<svg xmlns="http://www.w3.org/2000/svg" viewBox="0 0 520 360"><defs><linearGradient id="g" x1="0" y1="0" x2="1" y2="1"><stop offset="0" stop-color="#0b66c3"/><stop offset="1" stop-color="#0ea5e9"/></linearGradient><linearGradient id="gr" x1="0" y1="0" x2="1" y2="1"><stop offset="0" stop-color="#22c55e"/><stop offset="1" stop-color="#16a34a"/></linearGradient><linearGradient id="ga" x1="0" y1="0" x2="1" y2="1"><stop offset="0" stop-color="#f59e0b"/><stop offset="1" stop-color="#d97706"/></linearGradient><linearGradient id="gd" x1="0" y1="0" x2="1" y2="1"><stop offset="0" stop-color="#ef4444"/><stop offset="1" stop-color="#dc2626"/></linearGradient><linearGradient id="gp" x1="0" y1="0" x2="1" y2="1"><stop offset="0" stop-color="#a78bfa"/><stop offset="1" stop-color="#7c3aed"/></linearGradient></defs><rect width="520" height="360" rx="18" fill="#eaf1f8"/><rect x="150.0" y="70.0" width="150" height="160" rx="12" fill="#fff" stroke="#cfd9e6" stroke-width="2"/><rect x="201.0" y="61.0" width="48.0" height="18" rx="6" fill="url(#g)"/><rect x="169.5" y="102.0" width="16" height="16" rx="4" fill="url(#g)"/><path d="M172.5 110.0 l4 4 l7 -9" stroke="#fff" stroke-width="2.5" fill="none" stroke-linecap="round" stroke-linejoin="round"/><rect x="192.0" y="106.0" width="82.5" height="8" rx="4" fill="#cfd9e6"/><rect x="169.5" y="151.6" width="16" height="16" rx="4" fill="url(#g)"/><path d="M172.5 159.6 l4 4 l7 -9" stroke="#fff" stroke-width="2.5" fill="none" stroke-linecap="round" stroke-linejoin="round"/><rect x="192.0" y="155.6" width="82.5" height="8" rx="4" fill="#cfd9e6"/><rect x="169.5" y="201.2" width="16" height="16" rx="4" fill="url(#g)"/><path d="M172.5 209.2 l4 4 l7 -9" stroke="#fff" stroke-width="2.5" fill="none" stroke-linecap="round" stroke-linejoin="round"/><rect x="192.0" y="205.2" width="82.5" height="8" rx="4" fill="#cfd9e6"/><g><rect x="320" y="120" width="90" height="12" rx="6" fill="url(#gr)"/><rect x="320" y="145" width="70" height="12" rx="6" fill="url(#ga)"/><rect x="320" y="170" width="100" height="12" rx="6" fill="url(#g)"/></g><text x="260" y="336" text-anchor="middle" font-family="Plus Jakarta Sans,Arial,sans-serif" font-size="17" font-weight="800" fill="#0a4f96">Rúbrica (6 criterios)</text></svg>