<svg xmlns="http://www.w3.org/2000/svg" viewBox="0 0 520 360"><defs><linearGradient id="g" x1="0" y1="0" x2="1" y2="1"><stop offset="0" stop-color="#0b66c3"/><stop offset="1" stop-color="#0ea5e9"/></linearGradient><linearGradient id="gr" x1="0" y1="0" x2="1" y2="1"><stop offset="0" stop-color="#22c55e"/><stop offset="1" stop-color="#16a34a"/></linearGradient><linearGradient id="ga" x1="0" y1="0" x2="1" y2="1"><stop offset="0" stop-color="#f59e0b"/><stop offset="1" stop-color="#d97706"/></linearGradient><linearGradient id="gd" x1="0" y1="0" x2="1" y2="1"><stop offset="0" stop-color="#ef4444"/><stop offset="1" stop-color="#dc2626"/></linearGradient><linearGradient id="gp" x1="0" y1="0" x2="1" y2="1"><stop offset="0" stop-color="#a78bfa"/><stop offset="1" stop-color="#7c3aed"/></linearGradient></defs><rect width="520" height="360" rx="18" fill="#eaf1f8"/><polygon points="200,98 252,191.6 148,191.6" fill="url(#ga)"/><rect x="196" y="131.8" width="8" height="36.4" rx="3" fill="#fff"/><circle cx="200" cy="178.6" r="5" fill="#fff"/><rect x="305.0" y="80.0" width="110" height="140" rx="10" fill="#fff" stroke="#cfd9e6" stroke-width="2"/><rect x="321.5" y="96.8" width="55.0" height="9" rx="4" fill="url(#gd)"/><rect x="321.5" y="124.80000000000001" width="77.0" height="7" rx="3" fill="#cfd9e6"/><rect x="321.5" y="145.8" width="77.0" height="7" rx="3" fill="#cfd9e6"/><rect x="321.5" y="166.8" width="77.0" height="7" rx="3" fill="#cfd9e6"/><rect x="321.5" y="187.8" width="77.0" height="7" rx="3" fill="#cfd9e6"/><text x="260" y="336" text-anchor="middle" font-family="Plus Jakarta Sans,Arial,sans-serif" font-size="17" font-weight="800" fill="#0a4f96">Problemas comunes</text></svg>