<svg xmlns="http://www.w3.org/2000/svg" viewBox="0 0 520 360"><defs><linearGradient id="g" x1="0" y1="0" x2="1" y2="1"><stop offset="0" stop-color="#0b66c3"/><stop offset="1" stop-color="#0ea5e9"/></linearGradient><linearGradient id="gr" x1="0" y1="0" x2="1" y2="1"><stop offset="0" stop-color="#22c55e"/><stop offset="1" stop-color="#16a34a"/></linearGradient><linearGradient id="ga" x1="0" y1="0" x2="1" y2="1"><stop offset="0" stop-color="#f59e0b"/><stop offset="1" stop-color="#d97706"/></linearGradient><linearGradient id="gd" x1="0" y1="0" x2="1" y2="1"><stop offset="0" stop-color="#ef4444"/><stop offset="1" stop-color="#dc2626"/></linearGradient><linearGradient id="gp" x1="0" y1="0" x2="1" y2="1"><stop offset="0" stop-color="#a78bfa"/><stop offset="1" stop-color="#7c3aed"/></linearGradient></defs><rect width="520" height="360" rx="18" fill="#eaf1f8"/><rect x="150.0" y="80.0" width="110" height="140" rx="10" fill="#fff" stroke="#cfd9e6" stroke-width="2"/><rect x="166.5" y="96.8" width="55.0" height="9" rx="4" fill="url(#g)"/><rect x="166.5" y="124.80000000000001" width="77.0" height="7" rx="3" fill="#cfd9e6"/><rect x="166.5" y="145.8" width="77.0" height="7" rx="3" fill="#cfd9e6"/><rect x="166.5" y="166.8" width="77.0" height="7" rx="3" fill="#cfd9e6"/><circle cx="335" cy="135" r="38" fill="url(#g)"/><rect x="367" y="129" width="12" height="12" rx="3" fill="url(#g)" transform="rotate(0 373 135)"/><rect x="356" y="156" width="12" height="12" rx="3" fill="url(#g)" transform="rotate(45 362 162)"/><rect x="329" y="167" width="12" height="12" rx="3" fill="url(#g)" transform="rotate(90 335 173)"/><rect x="302" y="156" width="12" height="12" rx="3" fill="url(#g)" transform="rotate(135 308 162)"/><rect x="291" y="129" width="12" height="12" rx="3" fill="url(#g)" transform="rotate(180 297 135)"/><rect x="302" y="102" width="12" height="12" rx="3" fill="url(#g)" transform="rotate(225 308 108)"/><rect x="329" y="91" width="12" height="12" rx="3" fill="url(#g)" transform="rotate(270 335 97)"/><rect x="356" y="102" width="12" height="12" rx="3" fill="url(#g)" transform="rotate(315 362 108)"/><circle cx="335" cy="135" r="15.959999999999999" fill="#eaf1f8"/><path d="M320 200 a35 35 0 1 1 10 25" fill="none" stroke="url(#gr)" stroke-width="6"/><path d="M325 210 l5 18 l18 -8 z" fill="url(#gr)"/><text x="260" y="336" text-anchor="middle" font-family="Plus Jakarta Sans,Arial,sans-serif" font-size="17" font-weight="800" fill="#0a4f96">Procedimientos operativos</text></svg>