<svg xmlns="http://www.w3.org/2000/svg" viewBox="0 0 520 360"><defs><linearGradient id="g" x1="0" y1="0" x2="1" y2="1"><stop offset="0" stop-color="#0b66c3"/><stop offset="1" stop-color="#0ea5e9"/></linearGradient><linearGradient id="gr" x1="0" y1="0" x2="1" y2="1"><stop offset="0" stop-color="#22c55e"/><stop offset="1" stop-color="#16a34a"/></linearGradient><linearGradient id="ga" x1="0" y1="0" x2="1" y2="1"><stop offset="0" stop-color="#f59e0b"/><stop offset="1" stop-color="#d97706"/></linearGradient><linearGradient id="gd" x1="0" y1="0" x2="1" y2="1"><stop offset="0" stop-color="#ef4444"/><stop offset="1" stop-color="#dc2626"/></linearGradient><linearGradient id="gp" x1="0" y1="0" x2="1" y2="1"><stop offset="0" stop-color="#a78bfa"/><stop offset="1" stop-color="#7c3aed"/></linearGradient></defs><rect width="520" height="360" rx="18" fill="#eaf1f8"/><rect x="175.0" y="93.75" width="90" height="112.5" rx="10" fill="#1f2937"/><rect x="185.0" y="105.75" width="70" height="24.166666666666668" rx="5" fill="#334155"/><circle cx="243.0" cy="117.83333333333333" r="4" fill="#22c55e"/><rect x="185.0" y="135.25" width="70" height="24.166666666666668" rx="5" fill="#334155"/><circle cx="243.0" cy="147.33333333333334" r="4" fill="#22c55e"/><rect x="185.0" y="164.75" width="70" height="24.166666666666668" rx="5" fill="#334155"/><circle cx="243.0" cy="176.83333333333334" r="4" fill="#22c55e"/><polygon points="289,102.4 401,102.4 401,158.4 345,206 289,158.4" fill="url(#g)"/><circle cx="345" cy="150" r="20" fill="#fff"/><path d="M336.0 150 l6.0 7.0 l12.0 -14.0" stroke="#fff" stroke-width="3.5999999999999996" fill="none" stroke-linecap="round" stroke-linejoin="round"/><text x="260" y="336" text-anchor="middle" font-family="Plus Jakarta Sans,Arial,sans-serif" font-size="17" font-weight="800" fill="#0a4f96">Proyecto del curso</text></svg>