<svg xmlns="http://www.w3.org/2000/svg" viewBox="0 0 520 360"><defs><linearGradient id="g" x1="0" y1="0" x2="1" y2="1"><stop offset="0" stop-color="#0b66c3"/><stop offset="1" stop-color="#0ea5e9"/></linearGradient><linearGradient id="gr" x1="0" y1="0" x2="1" y2="1"><stop offset="0" stop-color="#22c55e"/><stop offset="1" stop-color="#16a34a"/></linearGradient><linearGradient id="ga" x1="0" y1="0" x2="1" y2="1"><stop offset="0" stop-color="#f59e0b"/><stop offset="1" stop-color="#d97706"/></linearGradient><linearGradient id="gd" x1="0" y1="0" x2="1" y2="1"><stop offset="0" stop-color="#ef4444"/><stop offset="1" stop-color="#dc2626"/></linearGradient><linearGradient id="gp" x1="0" y1="0" x2="1" y2="1"><stop offset="0" stop-color="#a78bfa"/><stop offset="1" stop-color="#7c3aed"/></linearGradient></defs><rect width="520" height="360" rx="18" fill="#eaf1f8"/><circle cx="260" cy="150" r="96" fill="url(#gp)" opacity="0.12"/><line x1="260" y1="78" x2="260" y2="222" stroke="#0a4f96" stroke-width="6"/><line x1="188" y1="78" x2="332" y2="78" stroke="#0a4f96" stroke-width="6" stroke-linecap="round"/><circle cx="260" cy="78" r="7" fill="#0a4f96"/><rect x="224.0" y="222" width="72" height="12" rx="4" fill="#0a4f96"/><line x1="188" y1="78" x2="157.76" y2="146.4" stroke="#0a4f96" stroke-width="3"/><line x1="188" y1="78" x2="218.24" y2="146.4" stroke="#0a4f96" stroke-width="3"/><path d="M157.76 146.4 a30.24 23.04 0 0 0 60.48 0 z" fill="url(#g)"/><line x1="332" y1="78" x2="301.76" y2="146.4" stroke="#0a4f96" stroke-width="3"/><line x1="332" y1="78" x2="362.24" y2="146.4" stroke="#0a4f96" stroke-width="3"/><path d="M301.76 146.4 a30.24 23.04 0 0 0 60.48 0 z" fill="url(#g)"/><text x="260" y="336" text-anchor="middle" font-family="Plus Jakarta Sans,Arial,sans-serif" font-size="17" font-weight="800" fill="#0a4f96">Ética y legalidad</text></svg>