<svg xmlns="http://www.w3.org/2000/svg" viewBox="0 0 520 360"><defs><linearGradient id="g" x1="0" y1="0" x2="1" y2="1"><stop offset="0" stop-color="#0b66c3"/><stop offset="1" stop-color="#0ea5e9"/></linearGradient><linearGradient id="gr" x1="0" y1="0" x2="1" y2="1"><stop offset="0" stop-color="#22c55e"/><stop offset="1" stop-color="#16a34a"/></linearGradient><linearGradient id="ga" x1="0" y1="0" x2="1" y2="1"><stop offset="0" stop-color="#f59e0b"/><stop offset="1" stop-color="#d97706"/></linearGradient><linearGradient id="gd" x1="0" y1="0" x2="1" y2="1"><stop offset="0" stop-color="#ef4444"/><stop offset="1" stop-color="#dc2626"/></linearGradient><linearGradient id="gp" x1="0" y1="0" x2="1" y2="1"><stop offset="0" stop-color="#a78bfa"/><stop offset="1" stop-color="#7c3aed"/></linearGradient></defs><rect width="520" height="360" rx="18" fill="#eaf1f8"/><polygon points="152,110.7 268,110.7 268,168.7 210,218 152,168.7" fill="url(#gr)"/><polygon points="198,97.30000000000001 322,97.30000000000001 322,159.3 260,212 198,159.3" fill="url(#g)"/><polygon points="254,110.7 370,110.7 370,168.7 312,218 254,168.7" fill="url(#gp)"/><path d="M245.12 147.6 v-10.8 a14.879999999999999 14.879999999999999 0 0 1 29.759999999999998 0 v10.8" fill="none" stroke="#fff" stroke-width="7.199999999999999" stroke-linecap="round"/><rect x="239.6" y="147.6" width="40.8" height="31.200000000000003" rx="5.28" fill="#fff"/><circle cx="260" cy="160.79999999999998" r="4.800000000000001" fill="#fff"/><rect x="258.32" y="160.79999999999998" width="3.3600000000000003" height="10.8" rx="2" fill="#fff"/><text x="260" y="336" text-anchor="middle" font-family="Plus Jakarta Sans,Arial,sans-serif" font-size="17" font-weight="800" fill="#0a4f96">Procedimientos de seguridad</text></svg>