<svg xmlns="http://www.w3.org/2000/svg" viewBox="0 0 520 360"><defs><linearGradient id="g" x1="0" y1="0" x2="1" y2="1"><stop offset="0" stop-color="#0b66c3"/><stop offset="1" stop-color="#0ea5e9"/></linearGradient><linearGradient id="gr" x1="0" y1="0" x2="1" y2="1"><stop offset="0" stop-color="#22c55e"/><stop offset="1" stop-color="#16a34a"/></linearGradient><linearGradient id="ga" x1="0" y1="0" x2="1" y2="1"><stop offset="0" stop-color="#f59e0b"/><stop offset="1" stop-color="#d97706"/></linearGradient><linearGradient id="gd" x1="0" y1="0" x2="1" y2="1"><stop offset="0" stop-color="#ef4444"/><stop offset="1" stop-color="#dc2626"/></linearGradient><linearGradient id="gp" x1="0" y1="0" x2="1" y2="1"><stop offset="0" stop-color="#a78bfa"/><stop offset="1" stop-color="#7c3aed"/></linearGradient></defs><rect width="520" height="360" rx="18" fill="#eaf1f8"/><rect x="145.0" y="100.0" width="170" height="120" rx="8" fill="#cbd5e1"/><line x1="145.0" y1="130.0" x2="315.0" y2="130.0" stroke="#94a3b8" stroke-width="2"/><line x1="145.0" y1="160.0" x2="315.0" y2="160.0" stroke="#94a3b8" stroke-width="2"/><line x1="145.0" y1="190.0" x2="315.0" y2="190.0" stroke="#94a3b8" stroke-width="2"/><line x1="145.0" y1="100.0" x2="145.0" y2="130.0" stroke="#94a3b8" stroke-width="2"/><line x1="230.0" y1="100.0" x2="230.0" y2="130.0" stroke="#94a3b8" stroke-width="2"/><line x1="187.5" y1="130.0" x2="187.5" y2="160.0" stroke="#94a3b8" stroke-width="2"/><line x1="272.5" y1="130.0" x2="272.5" y2="160.0" stroke="#94a3b8" stroke-width="2"/><line x1="145.0" y1="160.0" x2="145.0" y2="190.0" stroke="#94a3b8" stroke-width="2"/><line x1="230.0" y1="160.0" x2="230.0" y2="190.0" stroke="#94a3b8" stroke-width="2"/><line x1="187.5" y1="190.0" x2="187.5" y2="220.0" stroke="#94a3b8" stroke-width="2"/><line x1="272.5" y1="190.0" x2="272.5" y2="220.0" stroke="#94a3b8" stroke-width="2"/><path d="M355 104 C 398.7 147.7, 382.6 196, 355 196 C 327.4 196, 311.3 147.7, 355 104 Z" fill="url(#gd)"/><path d="M355 133.9 C 378.0 156.9, 367.88 183.12, 355 183.12 C 342.12 183.12, 332.0 156.9, 355 133.9 Z" fill="url(#ga)"/><text x="260" y="336" text-anchor="middle" font-family="Plus Jakarta Sans,Arial,sans-serif" font-size="17" font-weight="800" fill="#0a4f96">Cortafuegos de Windows</text></svg>