<svg xmlns="http://www.w3.org/2000/svg" viewBox="0 0 520 360"><defs><linearGradient id="g" x1="0" y1="0" x2="1" y2="1"><stop offset="0" stop-color="#0b66c3"/><stop offset="1" stop-color="#0ea5e9"/></linearGradient><linearGradient id="gr" x1="0" y1="0" x2="1" y2="1"><stop offset="0" stop-color="#22c55e"/><stop offset="1" stop-color="#16a34a"/></linearGradient><linearGradient id="ga" x1="0" y1="0" x2="1" y2="1"><stop offset="0" stop-color="#f59e0b"/><stop offset="1" stop-color="#d97706"/></linearGradient><linearGradient id="gd" x1="0" y1="0" x2="1" y2="1"><stop offset="0" stop-color="#ef4444"/><stop offset="1" stop-color="#dc2626"/></linearGradient><linearGradient id="gp" x1="0" y1="0" x2="1" y2="1"><stop offset="0" stop-color="#a78bfa"/><stop offset="1" stop-color="#7c3aed"/></linearGradient></defs><rect width="520" height="360" rx="18" fill="#eaf1f8"/><rect x="120.0" y="105.19999999999999" width="140" height="89.60000000000001" rx="10" fill="#1f2937"/><rect x="128.0" y="113.19999999999999" width="124" height="73.60000000000001" rx="6" fill="#0f1830"/><rect x="176.0" y="194.8" width="28.0" height="14" fill="#1f2937"/><rect x="159.2" y="208.8" width="61.6" height="8" rx="4" fill="#1f2937"/><rect x="290.0" y="82.0" width="80" height="156.0" rx="12.8" fill="#1f2937"/><rect x="296.4" y="92.92" width="67.2" height="134.16" rx="7.199999999999999" fill="#0f1830"/><path d="M298 150 a32 32 0 0 1 64 0" fill="none" stroke="#7cc0ff" stroke-width="3.5" stroke-linecap="round"/><path d="M306.96 150 a23.04 23.04 0 0 1 46.08 0" fill="none" stroke="#7cc0ff" stroke-width="3.5" stroke-linecap="round"/><path d="M315.28 150 a14.72 14.72 0 0 1 29.44 0" fill="none" stroke="#7cc0ff" stroke-width="3.5" stroke-linecap="round"/><path d="M322.96 150 a7.04 7.04 0 0 1 14.08 0" fill="none" stroke="#7cc0ff" stroke-width="3.5" stroke-linecap="round"/><polygon points="386,91.1 454,91.1 454,125.1 420,154 386,125.1" fill="url(#gr)"/><text x="260" y="336" text-anchor="middle" font-family="Plus Jakarta Sans,Arial,sans-serif" font-size="17" font-weight="800" fill="#0a4f96">Lab: asegurar dispositivos</text></svg>