<svg xmlns="http://www.w3.org/2000/svg" viewBox="0 0 520 360"><defs><linearGradient id="g" x1="0" y1="0" x2="1" y2="1"><stop offset="0" stop-color="#0b66c3"/><stop offset="1" stop-color="#0ea5e9"/></linearGradient><linearGradient id="gr" x1="0" y1="0" x2="1" y2="1"><stop offset="0" stop-color="#22c55e"/><stop offset="1" stop-color="#16a34a"/></linearGradient><linearGradient id="ga" x1="0" y1="0" x2="1" y2="1"><stop offset="0" stop-color="#f59e0b"/><stop offset="1" stop-color="#d97706"/></linearGradient><linearGradient id="gd" x1="0" y1="0" x2="1" y2="1"><stop offset="0" stop-color="#ef4444"/><stop offset="1" stop-color="#dc2626"/></linearGradient><linearGradient id="gp" x1="0" y1="0" x2="1" y2="1"><stop offset="0" stop-color="#a78bfa"/><stop offset="1" stop-color="#7c3aed"/></linearGradient></defs><rect width="520" height="360" rx="18" fill="#eaf1f8"/><rect x="180.0" y="98.8" width="160" height="102.4" rx="10" fill="#1f2937"/><rect x="188.0" y="106.8" width="144" height="86.4" rx="6" fill="#0f1830"/><path d="M245.12 137.6 v-10.8 a14.879999999999999 14.879999999999999 0 0 1 29.759999999999998 0 v10.8" fill="none" stroke="url(#ga)" stroke-width="7.199999999999999" stroke-linecap="round"/><rect x="239.6" y="137.6" width="40.8" height="31.200000000000003" rx="5.28" fill="url(#ga)"/><circle cx="260" cy="150.79999999999998" r="4.800000000000001" fill="#fff"/><rect x="258.32" y="150.79999999999998" width="3.3600000000000003" height="10.8" rx="2" fill="#fff"/><rect x="244.0" y="201.2" width="32.0" height="14" fill="#1f2937"/><rect x="224.8" y="215.2" width="70.4" height="8" rx="4" fill="#1f2937"/><text x="260" y="336" text-anchor="middle" font-family="Plus Jakarta Sans,Arial,sans-serif" font-size="17" font-weight="800" fill="#0a4f96">Lab: endurecer estación</text></svg>