<svg xmlns="http://www.w3.org/2000/svg" viewBox="0 0 520 360"><defs><linearGradient id="g" x1="0" y1="0" x2="1" y2="1"><stop offset="0" stop-color="#0b66c3"/><stop offset="1" stop-color="#0ea5e9"/></linearGradient><linearGradient id="gr" x1="0" y1="0" x2="1" y2="1"><stop offset="0" stop-color="#22c55e"/><stop offset="1" stop-color="#16a34a"/></linearGradient><linearGradient id="ga" x1="0" y1="0" x2="1" y2="1"><stop offset="0" stop-color="#f59e0b"/><stop offset="1" stop-color="#d97706"/></linearGradient><linearGradient id="gd" x1="0" y1="0" x2="1" y2="1"><stop offset="0" stop-color="#ef4444"/><stop offset="1" stop-color="#dc2626"/></linearGradient><linearGradient id="gp" x1="0" y1="0" x2="1" y2="1"><stop offset="0" stop-color="#a78bfa"/><stop offset="1" stop-color="#7c3aed"/></linearGradient></defs><rect width="520" height="360" rx="18" fill="#eaf1f8"/><rect x="135.0" y="75.0" width="120" height="150" rx="10" fill="#fff" stroke="#cfd9e6" stroke-width="2"/><rect x="153.0" y="93.0" width="60.0" height="9" rx="4" fill="url(#g)"/><rect x="153.0" y="123.0" width="84.0" height="7" rx="3" fill="#cfd9e6"/><rect x="153.0" y="145.5" width="84.0" height="7" rx="3" fill="#cfd9e6"/><rect x="153.0" y="168.0" width="84.0" height="7" rx="3" fill="#cfd9e6"/><rect x="305.0" y="100.0" width="80" height="100.0" rx="10" fill="#1f2937"/><rect x="315.0" y="112.0" width="60" height="20.0" rx="5" fill="#334155"/><circle cx="363.0" cy="122.0" r="4" fill="#22c55e"/><rect x="315.0" y="137.33333333333334" width="60" height="20.0" rx="5" fill="#334155"/><circle cx="363.0" cy="147.33333333333334" r="4" fill="#22c55e"/><rect x="315.0" y="162.66666666666666" width="60" height="20.0" rx="5" fill="#334155"/><circle cx="363.0" cy="172.66666666666666" r="4" fill="#22c55e"/><path d="M330.12 147.6 v-10.8 a14.879999999999999 14.879999999999999 0 0 1 29.759999999999998 0 v10.8" fill="none" stroke="url(#ga)" stroke-width="7.199999999999999" stroke-linecap="round"/><rect x="324.6" y="147.6" width="40.8" height="31.200000000000003" rx="5.28" fill="url(#ga)"/><circle cx="345" cy="160.79999999999998" r="4.800000000000001" fill="#fff"/><rect x="343.32" y="160.79999999999998" width="3.3600000000000003" height="10.8" rx="2" fill="#fff"/><text x="260" y="336" text-anchor="middle" font-family="Plus Jakarta Sans,Arial,sans-serif" font-size="17" font-weight="800" fill="#0a4f96">Políticas y equipo físico</text></svg>