<svg xmlns="http://www.w3.org/2000/svg" viewBox="0 0 520 360"><defs><linearGradient id="g" x1="0" y1="0" x2="1" y2="1"><stop offset="0" stop-color="#0b66c3"/><stop offset="1" stop-color="#0ea5e9"/></linearGradient><linearGradient id="gr" x1="0" y1="0" x2="1" y2="1"><stop offset="0" stop-color="#22c55e"/><stop offset="1" stop-color="#16a34a"/></linearGradient><linearGradient id="ga" x1="0" y1="0" x2="1" y2="1"><stop offset="0" stop-color="#f59e0b"/><stop offset="1" stop-color="#d97706"/></linearGradient><linearGradient id="gd" x1="0" y1="0" x2="1" y2="1"><stop offset="0" stop-color="#ef4444"/><stop offset="1" stop-color="#dc2626"/></linearGradient><linearGradient id="gp" x1="0" y1="0" x2="1" y2="1"><stop offset="0" stop-color="#a78bfa"/><stop offset="1" stop-color="#7c3aed"/></linearGradient></defs><rect width="520" height="360" rx="18" fill="#eaf1f8"/><circle cx="260" cy="160" r="108" fill="url(#g)" opacity="0.12"/><polygon points="188,88.80000000000001 332,88.80000000000001 332,160.8 260,222 188,160.8" fill="url(#g)"/><path d="M241.4 147.0 v-13.5 a18.6 18.6 0 0 1 37.2 0 v13.5" fill="none" stroke="#fff" stroke-width="9.0" stroke-linecap="round"/><rect x="234.5" y="147.0" width="51.0" height="39.0" rx="6.6" fill="#fff"/><circle cx="260" cy="163.5" r="6.0" fill="#fff"/><rect x="257.9" y="163.5" width="4.2" height="13.5" rx="2" fill="#fff"/><text x="260" y="336" text-anchor="middle" font-family="Plus Jakarta Sans,Arial,sans-serif" font-size="17" font-weight="800" fill="#0a4f96">Seguridad en sistemas operativos</text></svg>