<svg xmlns="http://www.w3.org/2000/svg" viewBox="0 0 520 360"><defs><linearGradient id="g" x1="0" y1="0" x2="1" y2="1"><stop offset="0" stop-color="#0b66c3"/><stop offset="1" stop-color="#0ea5e9"/></linearGradient><linearGradient id="gr" x1="0" y1="0" x2="1" y2="1"><stop offset="0" stop-color="#22c55e"/><stop offset="1" stop-color="#16a34a"/></linearGradient><linearGradient id="ga" x1="0" y1="0" x2="1" y2="1"><stop offset="0" stop-color="#f59e0b"/><stop offset="1" stop-color="#d97706"/></linearGradient><linearGradient id="gd" x1="0" y1="0" x2="1" y2="1"><stop offset="0" stop-color="#ef4444"/><stop offset="1" stop-color="#dc2626"/></linearGradient><linearGradient id="gp" x1="0" y1="0" x2="1" y2="1"><stop offset="0" stop-color="#a78bfa"/><stop offset="1" stop-color="#7c3aed"/></linearGradient></defs><rect width="520" height="360" rx="18" fill="#eaf1f8"/><rect x="95.0" y="90.0" width="150" height="120" rx="12" fill="#0f172a"/><rect x="95.0" y="90.0" width="150" height="24" rx="12" fill="#1e293b"/><rect x="95.0" y="102.0" width="150" height="12" fill="#1e293b"/><circle cx="111.0" cy="102.0" r="4" fill="#ef4444"/><circle cx="125.0" cy="102.0" r="4" fill="#f59e0b"/><circle cx="139.0" cy="102.0" r="4" fill="#22c55e"/><text x="111.0" y="138.0" font-family="monospace" font-size="15" fill="#22c55e">$ sudo ufw enable</text><text x="111.0" y="164.0" font-family="monospace" font-size="15" fill="#0ea5e9">&gt; firewall activo</text><rect x="285.0" y="102.0" width="150" height="96.0" rx="10" fill="#1f2937"/><rect x="293.0" y="110.0" width="134" height="80.0" rx="6" fill="#0f1830"/><circle cx="360" cy="140" r="26" fill="#e2e8f0"/><circle cx="374.3" cy="142.6" r="11.700000000000001" fill="#0f1830"/><path d="M362.6 114 q 10.4 -7.8 13.0 2.6 q -10.4 0 -13.0 -2.6" fill="#e2e8f0"/><rect x="345.0" y="198.0" width="30.0" height="14" fill="#1f2937"/><rect x="327.0" y="212.0" width="66.0" height="8" rx="4" fill="#1f2937"/><text x="260" y="336" text-anchor="middle" font-family="Plus Jakarta Sans,Arial,sans-serif" font-size="17" font-weight="800" fill="#0a4f96">Linux y macOS</text></svg>