<svg xmlns="http://www.w3.org/2000/svg" viewBox="0 0 520 360"><defs><linearGradient id="g" x1="0" y1="0" x2="1" y2="1"><stop offset="0" stop-color="#0b66c3"/><stop offset="1" stop-color="#0ea5e9"/></linearGradient><linearGradient id="gr" x1="0" y1="0" x2="1" y2="1"><stop offset="0" stop-color="#22c55e"/><stop offset="1" stop-color="#16a34a"/></linearGradient><linearGradient id="ga" x1="0" y1="0" x2="1" y2="1"><stop offset="0" stop-color="#f59e0b"/><stop offset="1" stop-color="#d97706"/></linearGradient><linearGradient id="gd" x1="0" y1="0" x2="1" y2="1"><stop offset="0" stop-color="#ef4444"/><stop offset="1" stop-color="#dc2626"/></linearGradient><linearGradient id="gp" x1="0" y1="0" x2="1" y2="1"><stop offset="0" stop-color="#a78bfa"/><stop offset="1" stop-color="#7c3aed"/></linearGradient></defs><rect width="520" height="360" rx="18" fill="#eaf1f8"/><circle cx="260" cy="150" r="104" fill="url(#g)" opacity="0.12"/><g fill="url(#g)"><circle cx="224.0" cy="154.0" r="36.0"/><circle cx="296.0" cy="154.0" r="32.0"/><circle cx="260" cy="126.0" r="44.0"/><rect x="188.0" y="150" width="144.0" height="40.0" rx="20.0"/></g><path d="M242.64 155.2 v-12.6 a17.36 17.36 0 0 1 34.72 0 v12.6" fill="none" stroke="#fff" stroke-width="8.4" stroke-linecap="round"/><rect x="236.2" y="155.2" width="47.6" height="36.4" rx="6.16" fill="#fff"/><circle cx="260" cy="170.6" r="5.6000000000000005" fill="#fff"/><rect x="258.04" y="170.6" width="3.9200000000000004" height="12.6" rx="2" fill="#fff"/><rect x="300" y="96" width="58" height="26" rx="13" fill="url(#gr)"/><text x="329" y="114" text-anchor="middle" font-family="sans-serif" font-size="14" font-weight="800" fill="#fff">2FA</text><text x="260" y="336" text-anchor="middle" font-family="Plus Jakarta Sans,Arial,sans-serif" font-size="17" font-weight="800" fill="#0a4f96">Servicios de nube + 2FA</text></svg>