<svg xmlns="http://www.w3.org/2000/svg" viewBox="0 0 520 360"><defs><linearGradient id="g" x1="0" y1="0" x2="1" y2="1"><stop offset="0" stop-color="#0b66c3"/><stop offset="1" stop-color="#0ea5e9"/></linearGradient><linearGradient id="gr" x1="0" y1="0" x2="1" y2="1"><stop offset="0" stop-color="#22c55e"/><stop offset="1" stop-color="#16a34a"/></linearGradient><linearGradient id="ga" x1="0" y1="0" x2="1" y2="1"><stop offset="0" stop-color="#f59e0b"/><stop offset="1" stop-color="#d97706"/></linearGradient><linearGradient id="gd" x1="0" y1="0" x2="1" y2="1"><stop offset="0" stop-color="#ef4444"/><stop offset="1" stop-color="#dc2626"/></linearGradient><linearGradient id="gp" x1="0" y1="0" x2="1" y2="1"><stop offset="0" stop-color="#a78bfa"/><stop offset="1" stop-color="#7c3aed"/></linearGradient></defs><rect width="520" height="360" rx="18" fill="#eaf1f8"/><rect x="149.0" y="70.3" width="92" height="179.4" rx="14.72" fill="#1f2937"/><rect x="156.36" y="82.858" width="77.28" height="154.284" rx="8.28" fill="#0c2a14"/><path d="M195 150 a0 0 0 0 1 0 0" fill="none" stroke="#7cc0ff" stroke-width="3.5" stroke-linecap="round"/><path d="M195.0 150 a0.0 0.0 0 0 1 0.0 0" fill="none" stroke="#7cc0ff" stroke-width="3.5" stroke-linecap="round"/><path d="M195.0 150 a0.0 0.0 0 0 1 0.0 0" fill="none" stroke="#7cc0ff" stroke-width="3.5" stroke-linecap="round"/><path d="M195.0 150 a0.0 0.0 0 0 1 0.0 0" fill="none" stroke="#7cc0ff" stroke-width="3.5" stroke-linecap="round"/><circle cx="195" cy="150" r="26" fill="url(#gr)"/><circle cx="195" cy="142" r="9" fill="#fff"/><rect x="190" y="150" width="10" height="20" rx="3" fill="#fff"/><rect x="284.0" y="70.3" width="92" height="179.4" rx="14.72" fill="#1f2937"/><rect x="291.36" y="82.858" width="77.28" height="154.284" rx="8.28" fill="#101626"/><circle cx="330" cy="150" r="22" fill="#e2e8f0"/><circle cx="342.1" cy="152.2" r="9.9" fill="#0f1830"/><path d="M332.2 128 q 8.8 -6.6 11.0 2.2 q -8.8 0 -11.0 -2.2" fill="#e2e8f0"/><text x="260" y="336" text-anchor="middle" font-family="Plus Jakarta Sans,Arial,sans-serif" font-size="17" font-weight="800" fill="#0a4f96">Android e iOS</text></svg>