<svg xmlns="http://www.w3.org/2000/svg" viewBox="0 0 520 360"><defs><linearGradient id="g" x1="0" y1="0" x2="1" y2="1"><stop offset="0" stop-color="#0b66c3"/><stop offset="1" stop-color="#0ea5e9"/></linearGradient><linearGradient id="gr" x1="0" y1="0" x2="1" y2="1"><stop offset="0" stop-color="#22c55e"/><stop offset="1" stop-color="#16a34a"/></linearGradient><linearGradient id="ga" x1="0" y1="0" x2="1" y2="1"><stop offset="0" stop-color="#f59e0b"/><stop offset="1" stop-color="#d97706"/></linearGradient><linearGradient id="gd" x1="0" y1="0" x2="1" y2="1"><stop offset="0" stop-color="#ef4444"/><stop offset="1" stop-color="#dc2626"/></linearGradient><linearGradient id="gp" x1="0" y1="0" x2="1" y2="1"><stop offset="0" stop-color="#a78bfa"/><stop offset="1" stop-color="#7c3aed"/></linearGradient></defs><rect width="520" height="360" rx="18" fill="#eaf1f8"/><rect x="206.0" y="52.7" width="108" height="210.6" rx="17.28" fill="#1f2937"/><rect x="214.64" y="67.44200000000001" width="90.72" height="181.11599999999999" rx="9.719999999999999" fill="#0f1830"/><path d="M220 150 a40 40 0 0 1 80 0" fill="none" stroke="#7cc0ff" stroke-width="3.5" stroke-linecap="round"/><path d="M231.2 150 a28.799999999999997 28.799999999999997 0 0 1 57.599999999999994 0" fill="none" stroke="#7cc0ff" stroke-width="3.5" stroke-linecap="round"/><path d="M241.6 150 a18.400000000000002 18.400000000000002 0 0 1 36.800000000000004 0" fill="none" stroke="#7cc0ff" stroke-width="3.5" stroke-linecap="round"/><path d="M251.2 150 a8.8 8.8 0 0 1 17.6 0" fill="none" stroke="#7cc0ff" stroke-width="3.5" stroke-linecap="round"/><text x="260" y="336" text-anchor="middle" font-family="Plus Jakarta Sans,Arial,sans-serif" font-size="17" font-weight="800" fill="#0a4f96">Bloqueo y biometría</text></svg>