<svg xmlns="http://www.w3.org/2000/svg" viewBox="0 0 520 360"><defs><linearGradient id="g" x1="0" y1="0" x2="1" y2="1"><stop offset="0" stop-color="#0b66c3"/><stop offset="1" stop-color="#0ea5e9"/></linearGradient><linearGradient id="gr" x1="0" y1="0" x2="1" y2="1"><stop offset="0" stop-color="#22c55e"/><stop offset="1" stop-color="#16a34a"/></linearGradient><linearGradient id="ga" x1="0" y1="0" x2="1" y2="1"><stop offset="0" stop-color="#f59e0b"/><stop offset="1" stop-color="#d97706"/></linearGradient><linearGradient id="gd" x1="0" y1="0" x2="1" y2="1"><stop offset="0" stop-color="#ef4444"/><stop offset="1" stop-color="#dc2626"/></linearGradient><linearGradient id="gp" x1="0" y1="0" x2="1" y2="1"><stop offset="0" stop-color="#a78bfa"/><stop offset="1" stop-color="#7c3aed"/></linearGradient></defs><rect width="520" height="360" rx="18" fill="#eaf1f8"/><rect x="170.0" y="102.0" width="150" height="96.0" rx="10" fill="#1f2937"/><rect x="178.0" y="110.0" width="134" height="80.0" rx="6" fill="#0f1830"/><polygon points="217,114.2 273,114.2 273,142.2 245,166 217,142.2" fill="url(#gr)"/><rect x="230.0" y="198.0" width="30.0" height="14" fill="#1f2937"/><rect x="212.0" y="212.0" width="66.0" height="8" rx="4" fill="#1f2937"/><rect x="335.0" y="105.0" width="70" height="90" rx="12" fill="#fff" stroke="#cfd9e6" stroke-width="2"/><rect x="358.8" y="96.0" width="22.400000000000002" height="18" rx="6" fill="url(#g)"/><rect x="344.1" y="123.0" width="16" height="16" rx="4" fill="url(#g)"/><path d="M347.1 131.0 l4 4 l7 -9" stroke="#fff" stroke-width="2.5" fill="none" stroke-linecap="round" stroke-linejoin="round"/><rect x="354.6" y="127.0" width="38.5" height="8" rx="4" fill="#cfd9e6"/><rect x="344.1" y="178.8" width="16" height="16" rx="4" fill="url(#g)"/><path d="M347.1 186.8 l4 4 l7 -9" stroke="#fff" stroke-width="2.5" fill="none" stroke-linecap="round" stroke-linejoin="round"/><rect x="354.6" y="182.8" width="38.5" height="8" rx="4" fill="#cfd9e6"/><text x="260" y="336" text-anchor="middle" font-family="Plus Jakarta Sans,Arial,sans-serif" font-size="17" font-weight="800" fill="#0a4f96">Endurecer estaciones</text></svg>