<svg xmlns="http://www.w3.org/2000/svg" viewBox="0 0 520 360"><defs><linearGradient id="g" x1="0" y1="0" x2="1" y2="1"><stop offset="0" stop-color="#0b66c3"/><stop offset="1" stop-color="#0ea5e9"/></linearGradient><linearGradient id="gr" x1="0" y1="0" x2="1" y2="1"><stop offset="0" stop-color="#22c55e"/><stop offset="1" stop-color="#16a34a"/></linearGradient><linearGradient id="ga" x1="0" y1="0" x2="1" y2="1"><stop offset="0" stop-color="#f59e0b"/><stop offset="1" stop-color="#d97706"/></linearGradient><linearGradient id="gd" x1="0" y1="0" x2="1" y2="1"><stop offset="0" stop-color="#ef4444"/><stop offset="1" stop-color="#dc2626"/></linearGradient><linearGradient id="gp" x1="0" y1="0" x2="1" y2="1"><stop offset="0" stop-color="#a78bfa"/><stop offset="1" stop-color="#7c3aed"/></linearGradient></defs><rect width="520" height="360" rx="18" fill="#eaf1f8"/><rect x="159" y="104" width="41.4" height="41.4" rx="4" fill="url(#g)"/><rect x="209.6" y="104" width="41.4" height="41.4" rx="4" fill="url(#g)"/><rect x="159" y="154.6" width="41.4" height="41.4" rx="4" fill="url(#g)"/><rect x="209.6" y="154.6" width="41.4" height="41.4" rx="4" fill="url(#g)"/><circle cx="320" cy="131.3" r="14.28" fill="url(#gr)"/><path d="M291.1 184 a28.9 26.52 0 0 1 57.8 0 z" fill="url(#gr)"/><circle cx="370" cy="143.5" r="12.6" fill="url(#g)"/><path d="M344.5 190 a25.5 23.400000000000002 0 0 1 51.0 0 z" fill="url(#g)"/><circle cx="290" cy="149.6" r="11.76" fill="url(#ga)"/><path d="M266.2 193 a23.8 21.84 0 0 1 47.6 0 z" fill="url(#ga)"/><text x="260" y="336" text-anchor="middle" font-family="Plus Jakarta Sans,Arial,sans-serif" font-size="17" font-weight="800" fill="#0a4f96">Usuarios y grupos</text></svg>