<svg xmlns="http://www.w3.org/2000/svg" viewBox="0 0 520 360"><defs><linearGradient id="g" x1="0" y1="0" x2="1" y2="1"><stop offset="0" stop-color="#0b66c3"/><stop offset="1" stop-color="#0ea5e9"/></linearGradient><linearGradient id="gr" x1="0" y1="0" x2="1" y2="1"><stop offset="0" stop-color="#22c55e"/><stop offset="1" stop-color="#16a34a"/></linearGradient><linearGradient id="ga" x1="0" y1="0" x2="1" y2="1"><stop offset="0" stop-color="#f59e0b"/><stop offset="1" stop-color="#d97706"/></linearGradient><linearGradient id="gd" x1="0" y1="0" x2="1" y2="1"><stop offset="0" stop-color="#ef4444"/><stop offset="1" stop-color="#dc2626"/></linearGradient><linearGradient id="gp" x1="0" y1="0" x2="1" y2="1"><stop offset="0" stop-color="#a78bfa"/><stop offset="1" stop-color="#7c3aed"/></linearGradient></defs><rect width="520" height="360" rx="18" fill="#eaf1f8"/><circle cx="260" cy="155" r="92" fill="url(#ga)" opacity="0.12"/><path d="M208 124.0 h88.39999999999999 v46.800000000000004 a44.199999999999996 44.199999999999996 0 0 1 -88.39999999999999 0 z" fill="url(#g)"/><path d="M296.4 137.0 a21.84 21.84 0 0 1 0 41.6" fill="none" stroke="url(#g)" stroke-width="6"/><path d="M241.8 108.4 q 13.0 -15.6 0 -31.2" stroke="#94a3b8" stroke-width="4" fill="none" stroke-linecap="round"/><path d="M265.2 108.4 q 13.0 -15.6 0 -31.2" stroke="#94a3b8" stroke-width="4" fill="none" stroke-linecap="round"/><text x="260" y="336" text-anchor="middle" font-family="Plus Jakarta Sans,Arial,sans-serif" font-size="17" font-weight="800" fill="#0a4f96">Pausa activa</text></svg>