<svg xmlns="http://www.w3.org/2000/svg" viewBox="0 0 520 360"><defs><linearGradient id="g" x1="0" y1="0" x2="1" y2="1"><stop offset="0" stop-color="#0b66c3"/><stop offset="1" stop-color="#0ea5e9"/></linearGradient><linearGradient id="gr" x1="0" y1="0" x2="1" y2="1"><stop offset="0" stop-color="#22c55e"/><stop offset="1" stop-color="#16a34a"/></linearGradient><linearGradient id="ga" x1="0" y1="0" x2="1" y2="1"><stop offset="0" stop-color="#f59e0b"/><stop offset="1" stop-color="#d97706"/></linearGradient><linearGradient id="gd" x1="0" y1="0" x2="1" y2="1"><stop offset="0" stop-color="#ef4444"/><stop offset="1" stop-color="#dc2626"/></linearGradient><linearGradient id="gp" x1="0" y1="0" x2="1" y2="1"><stop offset="0" stop-color="#a78bfa"/><stop offset="1" stop-color="#7c3aed"/></linearGradient></defs><rect width="520" height="360" rx="18" fill="#eaf1f8"/><rect x="155.0" y="100.0" width="150" height="120" rx="8" fill="#cbd5e1"/><line x1="155.0" y1="130.0" x2="305.0" y2="130.0" stroke="#94a3b8" stroke-width="2"/><line x1="155.0" y1="160.0" x2="305.0" y2="160.0" stroke="#94a3b8" stroke-width="2"/><line x1="155.0" y1="190.0" x2="305.0" y2="190.0" stroke="#94a3b8" stroke-width="2"/><line x1="155.0" y1="100.0" x2="155.0" y2="130.0" stroke="#94a3b8" stroke-width="2"/><line x1="230.0" y1="100.0" x2="230.0" y2="130.0" stroke="#94a3b8" stroke-width="2"/><line x1="192.5" y1="130.0" x2="192.5" y2="160.0" stroke="#94a3b8" stroke-width="2"/><line x1="267.5" y1="130.0" x2="267.5" y2="160.0" stroke="#94a3b8" stroke-width="2"/><line x1="155.0" y1="160.0" x2="155.0" y2="190.0" stroke="#94a3b8" stroke-width="2"/><line x1="230.0" y1="160.0" x2="230.0" y2="190.0" stroke="#94a3b8" stroke-width="2"/><line x1="192.5" y1="190.0" x2="192.5" y2="220.0" stroke="#94a3b8" stroke-width="2"/><line x1="267.5" y1="190.0" x2="267.5" y2="220.0" stroke="#94a3b8" stroke-width="2"/><circle cx="345" cy="118" r="26" fill="url(#gr)"/><path d="M333.3 118 l7.8 9.1 l15.6 -18.2" stroke="#fff" stroke-width="4.68" fill="none" stroke-linecap="round" stroke-linejoin="round"/><circle cx="345" cy="188" r="26" fill="url(#gd)"/><path d="M334.6 177.6 l20.8 20.8 M355.4 177.6 l-20.8 20.8" stroke="#fff" stroke-width="4.68" stroke-linecap="round"/><text x="260" y="336" text-anchor="middle" font-family="Plus Jakarta Sans,Arial,sans-serif" font-size="17" font-weight="800" fill="#0a4f96">Reglas: permitir / bloquear</text></svg>