<svg xmlns="http://www.w3.org/2000/svg" viewBox="0 0 520 360"><defs><linearGradient id="g" x1="0" y1="0" x2="1" y2="1"><stop offset="0" stop-color="#0b66c3"/><stop offset="1" stop-color="#0ea5e9"/></linearGradient><linearGradient id="gr" x1="0" y1="0" x2="1" y2="1"><stop offset="0" stop-color="#22c55e"/><stop offset="1" stop-color="#16a34a"/></linearGradient><linearGradient id="ga" x1="0" y1="0" x2="1" y2="1"><stop offset="0" stop-color="#f59e0b"/><stop offset="1" stop-color="#d97706"/></linearGradient><linearGradient id="gd" x1="0" y1="0" x2="1" y2="1"><stop offset="0" stop-color="#ef4444"/><stop offset="1" stop-color="#dc2626"/></linearGradient><linearGradient id="gp" x1="0" y1="0" x2="1" y2="1"><stop offset="0" stop-color="#a78bfa"/><stop offset="1" stop-color="#7c3aed"/></linearGradient></defs><rect width="520" height="360" rx="18" fill="#eaf1f8"/><rect x="180.0" y="70.0" width="160" height="160" rx="12" fill="#fff" stroke="#cfd9e6" stroke-width="2"/><rect x="234.4" y="61.0" width="51.2" height="18" rx="6" fill="url(#ga)"/><rect x="200.8" y="102.0" width="16" height="16" rx="4" fill="url(#ga)"/><path d="M203.8 110.0 l4 4 l7 -9" stroke="#fff" stroke-width="2.5" fill="none" stroke-linecap="round" stroke-linejoin="round"/><rect x="224.8" y="106.0" width="88.0" height="8" rx="4" fill="#cfd9e6"/><rect x="200.8" y="135.06666666666666" width="16" height="16" rx="4" fill="url(#ga)"/><path d="M203.8 143.06666666666666 l4 4 l7 -9" stroke="#fff" stroke-width="2.5" fill="none" stroke-linecap="round" stroke-linejoin="round"/><rect x="224.8" y="139.06666666666666" width="88.0" height="8" rx="4" fill="#cfd9e6"/><rect x="200.8" y="168.13333333333333" width="16" height="16" rx="4" fill="url(#ga)"/><path d="M203.8 176.13333333333333 l4 4 l7 -9" stroke="#fff" stroke-width="2.5" fill="none" stroke-linecap="round" stroke-linejoin="round"/><rect x="224.8" y="172.13333333333333" width="88.0" height="8" rx="4" fill="#cfd9e6"/><rect x="200.8" y="201.20000000000002" width="16" height="16" rx="4" fill="url(#ga)"/><path d="M203.8 209.20000000000002 l4 4 l7 -9" stroke="#fff" stroke-width="2.5" fill="none" stroke-linecap="round" stroke-linejoin="round"/><rect x="224.8" y="205.20000000000002" width="88.0" height="8" rx="4" fill="#cfd9e6"/><text x="260" y="336" text-anchor="middle" font-family="Plus Jakarta Sans,Arial,sans-serif" font-size="17" font-weight="800" fill="#0a4f96">Pasos del caso práctico</text></svg>