<svg xmlns="http://www.w3.org/2000/svg" viewBox="0 0 520 360"><defs><linearGradient id="g" x1="0" y1="0" x2="1" y2="1"><stop offset="0" stop-color="#0b66c3"/><stop offset="1" stop-color="#0ea5e9"/></linearGradient><linearGradient id="gr" x1="0" y1="0" x2="1" y2="1"><stop offset="0" stop-color="#22c55e"/><stop offset="1" stop-color="#16a34a"/></linearGradient><linearGradient id="ga" x1="0" y1="0" x2="1" y2="1"><stop offset="0" stop-color="#f59e0b"/><stop offset="1" stop-color="#d97706"/></linearGradient><linearGradient id="gd" x1="0" y1="0" x2="1" y2="1"><stop offset="0" stop-color="#ef4444"/><stop offset="1" stop-color="#dc2626"/></linearGradient><linearGradient id="gp" x1="0" y1="0" x2="1" y2="1"><stop offset="0" stop-color="#a78bfa"/><stop offset="1" stop-color="#7c3aed"/></linearGradient></defs><rect width="520" height="360" rx="18" fill="#eaf1f8"/><polygon points="205,100 255,190.0 155,190.0" fill="url(#gd)"/><rect x="201" y="132.5" width="8" height="35.0" rx="3" fill="#fff"/><circle cx="205" cy="177.5" r="5" fill="#fff"/><line x1="330.0" y1="136.0" x2="314.4" y2="92.8" stroke="#1f2937" stroke-width="5" stroke-linecap="round"/><line x1="390.0" y1="136.0" x2="405.6" y2="92.8" stroke="#1f2937" stroke-width="5" stroke-linecap="round"/><rect x="300.0" y="136.0" width="120" height="48.0" rx="10" fill="#1f2937"/><circle cx="326.4" cy="160" r="4" fill="#22c55e"/><circle cx="348.0" cy="160" r="4" fill="#22c55e"/><circle cx="369.59999999999997" cy="160" r="4" fill="#22c55e"/><circle cx="391.2" cy="160" r="4" fill="#22c55e"/><text x="260" y="336" text-anchor="middle" font-family="Plus Jakarta Sans,Arial,sans-serif" font-size="17" font-weight="800" fill="#0a4f96">Lab: diagnóstico de incidente</text></svg>