<svg xmlns="http://www.w3.org/2000/svg" viewBox="0 0 520 360"><defs><linearGradient id="g" x1="0" y1="0" x2="1" y2="1"><stop offset="0" stop-color="#0b66c3"/><stop offset="1" stop-color="#0ea5e9"/></linearGradient><linearGradient id="gr" x1="0" y1="0" x2="1" y2="1"><stop offset="0" stop-color="#22c55e"/><stop offset="1" stop-color="#16a34a"/></linearGradient><linearGradient id="ga" x1="0" y1="0" x2="1" y2="1"><stop offset="0" stop-color="#f59e0b"/><stop offset="1" stop-color="#d97706"/></linearGradient><linearGradient id="gd" x1="0" y1="0" x2="1" y2="1"><stop offset="0" stop-color="#ef4444"/><stop offset="1" stop-color="#dc2626"/></linearGradient><linearGradient id="gp" x1="0" y1="0" x2="1" y2="1"><stop offset="0" stop-color="#a78bfa"/><stop offset="1" stop-color="#7c3aed"/></linearGradient></defs><rect width="520" height="360" rx="18" fill="#eaf1f8"/><circle cx="200" cy="136.4" r="21.84" fill="url(#g)"/><path d="M155.8 217 a44.199999999999996 40.56 0 0 1 88.39999999999999 0 z" fill="url(#g)"/><rect x="285.0" y="102.0" width="150" height="96.0" rx="10" fill="#1f2937"/><rect x="293.0" y="110.0" width="134" height="80.0" rx="6" fill="#0f1830"/><rect x="305" y="120" width="50" height="8" rx="4" fill="#22c55e"/><rect x="305" y="138" width="80" height="6" rx="3" fill="#475569"/><rect x="305" y="152" width="65" height="6" rx="3" fill="#475569"/><rect x="345.0" y="198.0" width="30.0" height="14" fill="#1f2937"/><rect x="327.0" y="212.0" width="66.0" height="8" rx="4" fill="#1f2937"/><text x="260" y="336" text-anchor="middle" font-family="Plus Jakarta Sans,Arial,sans-serif" font-size="17" font-weight="800" fill="#0a4f96">Defensa del proyecto</text></svg>