<svg xmlns="http://www.w3.org/2000/svg" viewBox="0 0 520 360"><defs><linearGradient id="g" x1="0" y1="0" x2="1" y2="1"><stop offset="0" stop-color="#0b66c3"/><stop offset="1" stop-color="#0ea5e9"/></linearGradient><linearGradient id="gr" x1="0" y1="0" x2="1" y2="1"><stop offset="0" stop-color="#22c55e"/><stop offset="1" stop-color="#16a34a"/></linearGradient><linearGradient id="ga" x1="0" y1="0" x2="1" y2="1"><stop offset="0" stop-color="#f59e0b"/><stop offset="1" stop-color="#d97706"/></linearGradient><linearGradient id="gd" x1="0" y1="0" x2="1" y2="1"><stop offset="0" stop-color="#ef4444"/><stop offset="1" stop-color="#dc2626"/></linearGradient><linearGradient id="gp" x1="0" y1="0" x2="1" y2="1"><stop offset="0" stop-color="#a78bfa"/><stop offset="1" stop-color="#7c3aed"/></linearGradient></defs><rect width="520" height="360" rx="18" fill="#eaf1f8"/><circle cx="260" cy="150" r="104" fill="url(#g)" opacity="0.12"/><circle cx="260" cy="111.5" r="29.4" fill="url(#g)"/><path d="M200.5 220 a59.5 54.6 0 0 1 119.0 0 z" fill="url(#g)"/><path d="M214 128 a46 46 0 0 1 92 0" fill="none" stroke="url(#g)" stroke-width="8"/><rect x="207" y="128" width="16" height="30" rx="6" fill="url(#g)"/><rect x="297" y="128" width="16" height="30" rx="6" fill="url(#g)"/><path d="M307 154 q0 20.7 -25.3 20.7 h-16.099999999999998" fill="none" stroke="url(#g)" stroke-width="6"/><circle cx="264.6" cy="174.0" r="6" fill="url(#g)"/><text x="260" y="336" text-anchor="middle" font-family="Plus Jakarta Sans,Arial,sans-serif" font-size="17" font-weight="800" fill="#0a4f96">Habilidades profesionales</text></svg>